<svg xmlns="http://www.w3.org/2000/svg" version="1.1" xmlns:xlink="http://www.w3.org/1999/xlink" xmlns:svgjs="http://svgjs.dev/svgjs" width="1500" height="303" viewBox="0 0 1500 303"><g transform="matrix(1,0,0,1,-0.9090909090908781,-0.2685744901318401)"><svg viewBox="0 0 396 80" data-background-color="#ffffff" preserveAspectRatio="xMidYMid meet" height="303" width="1500" xmlns="http://www.w3.org/2000/svg" xmlns:xlink="http://www.w3.org/1999/xlink"><g id="tight-bounds" transform="matrix(1,0,0,1,0.2400000000000091,0.07091075647045386)"><svg viewBox="0 0 395.52 79.85785576057916" height="79.85785576057916" width="395.52"><g><svg viewBox="0 0 522.0081678516528 105.39657406488038" height="79.85785576057916" width="395.52"><g transform="matrix(1,0,0,1,126.48816785165286,30.36268982351968)"><svg viewBox="0 0 395.52 44.67119441784102" height="44.67119441784102" width="395.52"><g id="textblocktransform"><svg viewBox="0 0 395.52 44.67119441784102" height="44.67119441784102" width="395.52" id="textblock"><g><svg viewBox="0 0 395.52 44.67119441784102" height="44.67119441784102" width="395.52"><g transform="matrix(1,0,0,1,0,0)"><svg width="395.52" viewBox="1.54 -39.6 356.85999999999996 40.31" height="44.67119441784102" data-palette-color="#8b9fd9"><path d="M21.24 0.71L21.24 0.71Q15.82 0.71 11.38-1.59L11.38-1.59Q6.88-3.86 4.21-8.42 1.54-12.99 1.54-19.65L1.54-19.65Q1.54-25.22 3.56-29.79L3.56-29.79Q5.59-34.3 9.51-36.95 13.43-39.6 18.99-39.6L18.99-39.6Q21.83-39.6 24.08-38.27 26.34-36.94 27.34-34.91L27.34-34.91 28.34-38.84 35.94-38.84 35.94-22.9 28.15-22.9 28.15-23.71Q28.15-26.81 26.72-28.78 25.29-30.76 22.49-30.76L22.49-30.76Q20.61-30.76 19.02-29.32L19.02-29.32Q17.46-27.86 16.55-25.5 15.65-23.14 15.65-20.65L15.65-20.65Q15.65-15.75 18.09-12.98 20.53-10.21 24.78-10.21L24.78-10.21Q27.78-10.21 30.36-11.21 32.93-12.21 34.59-13.35L34.59-13.35 35.13-12.89 35.13-2.49Q32.03-0.71 28.59 0 25.15 0.71 21.24 0.71ZM57.3-7.35L57.3 0 40.09 0 40.09-7.35 43.19-7.35 43.19-29.86 40.09-29.86 40.09-36.5 54.93-38.11 54.93-22.34Q55.88-24.1 58.26-25.38 60.64-26.66 63.55-26.66L63.55-26.66Q67.8-26.66 69.97-24.16 72.14-21.66 72.14-17.14L72.14-17.14 72.14-7.35 75.24-7.35 75.24 0 60.37 0 60.37-15.94Q60.37-17.41 59.53-18.36 58.69-19.31 57.59-19.31L57.59-19.31Q56.35-19.31 55.64-18.46 54.93-17.6 54.93-16.16L54.93-16.16 54.93-7.35 57.3-7.35ZM86.52 0.44L86.52 0.44Q84.03 0.44 82-0.54L82-0.54Q79.95-1.49 78.73-3.3 77.51-5.1 77.51-7.5L77.51-7.5Q77.51-10.08 78.95-11.89L78.95-11.89Q80.39-13.65 82.72-14.53 85.05-15.41 87.76-15.41L87.76-15.41Q90.96-15.41 93.92-14.45L93.92-14.45 93.92-15.55Q93.92-17.5 92.27-18.53 90.62-19.56 87.81-19.56L87.81-19.56Q86.62-19.56 85.13-19.26 83.64-18.97 82.22-18.46 80.81-17.94 79.76-17.31L79.76-17.31 79.05-17.6 79.05-24.71Q82-25.76 85.08-26.21 88.15-26.66 90.82-26.66L90.82-26.66Q105.66-26.66 105.66-18.31L105.66-18.31 105.66-7.35 107.95-7.35 107.95 0 95.45 0 94.36-4Q93.31-1.95 91.08-0.76 88.86 0.44 86.52 0.44ZM91.11-5.81L91.11-5.81Q91.91-5.81 92.76-6.08 93.6-6.35 93.92-6.64L93.92-6.64 93.92-10.74Q93.55-10.79 92.74-11.04L92.74-11.04Q91.91-11.25 91.3-11.25L91.3-11.25Q90.01-11.25 89.24-10.45 88.47-9.64 88.47-8.3L88.47-8.3Q88.47-7.3 89.19-6.56 89.91-5.81 91.11-5.81ZM123.8 0.44L123.8 0.44Q114.4 0.44 114.4-9.35L114.4-9.35 114.4-18.99 110.49-18.99 110.49-26.15 114.4-26.15 114.4-31.74 126.09-34.35 126.09-26.15 130.78-26.15 130.78-18.99 126.09-18.99 126.09-10.21Q126.09-9.11 126.92-8.37 127.75-7.64 129-7.64L129-7.64Q129.9-7.64 130.78-7.79L130.78-7.79 130.78-1Q127.56 0.44 123.8 0.44ZM167.22 0.71L167.22 0.71Q161.8 0.71 157.36-1.59L157.36-1.59Q152.87-3.86 150.2-8.42 147.52-12.99 147.52-19.65L147.52-19.65Q147.52-25.22 149.55-29.79L149.55-29.79Q151.57-34.3 155.49-36.95 159.41-39.6 164.98-39.6L164.98-39.6Q167.81-39.6 170.07-38.27 172.33-36.94 173.33-34.91L173.33-34.91 174.33-38.84 181.92-38.84 181.92-22.9 174.13-22.9 174.13-23.71Q174.13-26.81 172.7-28.78 171.28-30.76 168.47-30.76L168.47-30.76Q166.59-30.76 165-29.32L165-29.32Q163.44-27.86 162.54-25.5 161.63-23.14 161.63-20.65L161.63-20.65Q161.63-15.75 164.07-12.98 166.52-10.21 170.76-10.21L170.76-10.21Q173.77-10.21 176.34-11.21 178.92-12.21 180.58-13.35L180.58-13.35 181.12-12.89 181.12-2.49Q178.01-0.71 174.57 0 171.13 0.71 167.22 0.71ZM203.28-7.35L203.28 0 186.07 0 186.07-7.35 189.17-7.35 189.17-29.86 186.07-29.86 186.07-36.5 200.91-38.11 200.91-22.34Q201.86-24.1 204.25-25.38 206.63-26.66 209.53-26.66L209.53-26.66Q213.78-26.66 215.95-24.16 218.12-21.66 218.12-17.14L218.12-17.14 218.12-7.35 221.23-7.35 221.23 0 206.36 0 206.36-15.94Q206.36-17.41 205.51-18.36 204.67-19.31 203.57-19.31L203.57-19.31Q202.33-19.31 201.62-18.46 200.91-17.6 200.91-16.16L200.91-16.16 200.91-7.35 203.28-7.35ZM232.5 0.44L232.5 0.44Q230.01 0.44 227.99-0.54L227.99-0.54Q225.93-1.49 224.71-3.3 223.49-5.1 223.49-7.5L223.49-7.5Q223.49-10.08 224.93-11.89L224.93-11.89Q226.37-13.65 228.71-14.53 231.04-15.41 233.75-15.41L233.75-15.41Q236.95-15.41 239.9-14.45L239.9-14.45 239.9-15.55Q239.9-17.5 238.25-18.53 236.6-19.56 233.8-19.56L233.8-19.56Q232.6-19.56 231.11-19.26 229.62-18.97 228.21-18.46 226.79-17.94 225.74-17.31L225.74-17.31 225.03-17.6 225.03-24.71Q227.99-25.76 231.06-26.21 234.14-26.66 236.8-26.66L236.8-26.66Q251.64-26.66 251.64-18.31L251.64-18.31 251.64-7.35 253.94-7.35 253.94 0 241.44 0 240.34-4Q239.29-1.95 237.07-0.76 234.85 0.44 232.5 0.44ZM237.09-5.81L237.09-5.81Q237.9-5.81 238.74-6.08 239.58-6.35 239.9-6.64L239.9-6.64 239.9-10.74Q239.53-10.79 238.73-11.04L238.73-11.04Q237.9-11.25 237.29-11.25L237.29-11.25Q235.99-11.25 235.22-10.45 234.46-9.64 234.46-8.3L234.46-8.3Q234.46-7.3 235.18-6.56 235.9-5.81 237.09-5.81ZM269.78 0.44L269.78 0.44Q260.38 0.44 260.38-9.35L260.38-9.35 260.38-18.99 256.47-18.99 256.47-26.15 260.38-26.15 260.38-31.74 272.07-34.35 272.07-26.15 276.76-26.15 276.76-18.99 272.07-18.99 272.07-10.21Q272.07-9.11 272.9-8.37 273.73-7.64 274.98-7.64L274.98-7.64Q275.88-7.64 276.76-7.79L276.76-7.79 276.76-1Q273.54 0.44 269.78 0.44ZM293.07 0.44L293.07 0.44Q283.67 0.44 283.67-9.35L283.67-9.35 283.67-18.99 279.76-18.99 279.76-26.15 283.67-26.15 283.67-31.74 295.36-34.35 295.36-26.15 300.05-26.15 300.05-18.99 295.36-18.99 295.36-10.21Q295.36-9.11 296.19-8.37 297.02-7.64 298.27-7.64L298.27-7.64Q299.17-7.64 300.05-7.79L300.05-7.79 300.05-1Q296.83 0.44 293.07 0.44ZM318.65 0.44L318.65 0.44Q314.11 0.44 310.77-1.25L310.77-1.25Q307.4-2.91 305.6-6.01 303.81-9.11 303.81-13.26L303.81-13.26Q303.81-17.36 305.57-20.39L305.57-20.39Q307.3-23.39 310.47-25.02 313.65-26.66 317.92-26.66L317.92-26.66Q321.85-26.66 324.85-25.12L324.85-25.12Q327.86-23.56 329.5-20.7 331.15-17.85 331.15-14.04L331.15-14.04Q331.15-12.72 330.76-11.55L330.76-11.55 315.55-11.55Q315.55-9.25 317.28-7.87 319.02-6.49 321.46-6.49L321.46-6.49Q323.31-6.49 325.54-7.14 327.76-7.79 330-9.16L330-9.16 330.42-9.01 330.42-2.44Q327.9-1 325.26-0.28 322.61 0.44 318.65 0.44ZM315.55-16.55L315.55-16.55 315.55-15.84 321.8-15.84 321.8-16.36Q321.8-18.09 321.01-19.35 320.21-20.61 318.65-20.61L318.65-20.61Q317.36-20.61 316.45-19.32 315.55-18.04 315.55-16.55ZM353.68-7.35L353.68 0 334.93 0 334.93-7.35 338.08-7.35 338.08-18.6 334.93-18.6 334.93-25.2 349.78-26.66 349.78-22.41Q350.56-23.63 352.07-24.6 353.59-25.56 355.31-26.11 357.03-26.66 358.4-26.66L358.4-26.66 358.4-16.31Q355.54-17.26 353.68-17.26L353.68-17.26Q351.34-17.26 350.56-15.91 349.78-14.55 349.78-12.35L349.78-12.35 349.78-7.35 353.68-7.35Z" opacity="1" transform="matrix(1,0,0,1,0,0)" fill="#8b9fd9" class="wordmark-text-0" data-fill-palette-color="primary" id="text-0"></path></svg></g></svg></g></svg></g></svg></g><g><svg viewBox="0 0 105.39657406488038 105.39657406488038" height="105.39657406488038" width="105.39657406488038"><g><svg></svg></g><g id="icon-0"><svg viewBox="0 0 105.39657406488038 105.39657406488038" height="105.39657406488038" width="105.39657406488038"><g><path d="M0 52.698c0-29.104 23.594-52.698 52.698-52.698 29.104 0 52.698 23.594 52.699 52.698 0 29.104-23.594 52.698-52.699 52.699-29.104 0-52.698-23.594-52.698-52.699zM52.698 101.368c26.88 0 48.67-21.79 48.67-48.67 0-26.88-21.79-48.67-48.67-48.669-26.88 0-48.67 21.79-48.669 48.669 0 26.88 21.79 48.67 48.669 48.67z" data-fill-palette-color="accent" fill="#8b9fd9" stroke="transparent"></path></g><g transform="matrix(1,0,0,1,22.418324791083922,27.600567859719263)"><svg viewBox="0 0 60.55992448271254 50.19543834544186" height="50.19543834544186" width="60.55992448271254"><g><svg xmlns="http://www.w3.org/2000/svg" xmlns:xlink="http://www.w3.org/1999/xlink" version="1.1" x="0" y="0" viewBox="11.206 17.76 77.794 64.47999999999999" enable-background="new 0 0 100 100" xml:space="preserve" height="50.19543834544186" width="60.55992448271254" class="icon-dxe-0" data-fill-palette-color="accent" id="dxe-0"><g fill="#8b9fd9" data-fill-palette-color="accent"><path d="M88.844 52.861C88.112 38.786 76.397 27.761 62.272 27.761 61.07 27.761 59.832 27.849 58.645 28.01 53.793 21.779 46.208 17.76 37.718 17.76 23.593 17.76 11.946 28.785 11.214 42.86L11.206 72.24 19.823 63.806C24.684 68.244 31.09 70.755 37.699 70.755A26.5 26.5 0 0 0 41.274 70.507C46.282 76.944 54.006 80.756 62.195 80.756 68.804 80.756 75.366 78.245 80.226 73.807L89 82.24V52.965zM21.286 59.635L19.788 58.144 15 62.729V43.017C16 31.093 25.62 21.76 37.598 21.76 50.003 21.76 60.145 31.852 60.145 44.258 60.145 56.663 50.078 66.755 37.674 66.755 31.393 66.754 25.589 64.226 21.286 59.635M61.583 56H74.478C73.736 62 68.51 66.736 62.196 66.736 59.577 66.736 57.095 65.989 55.012 64.495 57.746 62.13 59.997 59 61.583 56M85 72.73L80.16 68.145 78.686 69.635C74.382 74.227 68.515 76.755 62.234 76.755A22.58 22.58 0 0 1 45.7 69.523 26.3 26.3 0 0 0 52.562 66.188C55.285 68.394 58.857 69.599 62.416 69.599 70.893 69.599 78 62.703 78 54.227V53H62.8C63.244 52 63.589 50.191 63.824 48.794 64.525 49.863 65.73 50.503 67.104 50.503 69.271 50.503 71.028 48.712 71.028 46.545S69.271 42.604 67.104 42.604A3.9 3.9 0 0 0 64.188 43.916 26.34 26.34 0 0 0 61.072 31.792C61.446 31.774 61.975 31.762 62.35 31.762 74.327 31.763 84 41.094 85 53.018z" fill="#8b9fd9" data-fill-palette-color="accent"></path><path d="M51.572 41.641A1.5 1.5 0 0 0 50.072 43.141C50.072 49.964 44.522 55.514 37.699 55.514S25.326 49.964 25.326 43.141A1.5 1.5 0 1 0 22.326 43.141C22.326 51.618 29.222 58.514 37.699 58.514S53.072 51.618 53.072 43.141A1.5 1.5 0 0 0 51.572 41.641" fill="#8b9fd9" data-fill-palette-color="accent"></path><circle cx="31.409" cy="35.425" r="3.9" fill="#8b9fd9" data-fill-palette-color="accent"></circle><path d="M38.772 39H46.743A1.5 1.5 0 1 0 46.743 36H44.239L45.09 35.427C45.802 35.004 46.037 34.05 45.614 33.337S44.271 32.372 43.558 32.796L38.005 36.082C37.424 36.427 37.145 37.181 37.324 37.833 37.504 38.485 38.096 39 38.772 39" fill="#8b9fd9" data-fill-palette-color="accent"></path></g></svg></g></svg></g></svg></g></svg></g></svg></g><defs></defs></svg><rect width="395.52" height="79.85785576057916" fill="none" stroke="none" visibility="hidden"></rect></g></svg></g></svg>